<svg width="10" height="10" viewBox="0 0 10 10" fill="none" xmlns="http://www.w3.org/2000/svg">
<path fill-rule="evenodd" clip-rule="evenodd" d="M10.0001 5.00005C10.0001 6.32614 9.47331 7.59793 8.53562 8.53562C7.59793 9.47331 6.32614 10.0001 5.00005 10.0001C3.67395 10.0001 2.40217 9.47331 1.46448 8.53562C0.526789 7.59793 0 6.32614 0 5.00005C0 3.67395 0.526789 2.40217 1.46448 1.46448C2.40217 0.526789 3.67395 0 5.00005 0C6.32614 0 7.59793 0.526789 8.53562 1.46448C9.47331 2.40217 10.0001 3.67395 10.0001 5.00005ZM7.50007 5.00005C7.50007 5.6631 7.23668 6.29899 6.76783 6.76783C6.29899 7.23668 5.6631 7.50007 5.00005 7.50007C4.337 7.50007 3.70111 7.23668 3.23227 6.76783C2.76342 6.29899 2.50002 5.6631 2.50002 5.00005C2.50002 4.337 2.76342 3.70111 3.23227 3.23226C3.70111 2.76342 4.337 2.50002 5.00005 2.50002C5.6631 2.50002 6.29899 2.76342 6.76783 3.23226C7.23668 3.70111 7.50007 4.337 7.50007 5.00005Z" fill="white"/>
</svg>
