<svg width="16" height="16" viewBox="0 0 16 16" fill="none" xmlns="http://www.w3.org/2000/svg">
<path d="M12.6667 7.33317H8.66675V3.33317C8.66675 3.15636 8.59651 2.98679 8.47149 2.86177C8.34646 2.73674 8.17689 2.6665 8.00008 2.6665C7.82327 2.6665 7.6537 2.73674 7.52868 2.86177C7.40365 2.98679 7.33341 3.15636 7.33341 3.33317V7.33317H3.33341C3.1566 7.33317 2.98703 7.40341 2.86201 7.52843C2.73699 7.65346 2.66675 7.82303 2.66675 7.99984C2.66675 8.17665 2.73699 8.34622 2.86201 8.47124C2.98703 8.59627 3.1566 8.6665 3.33341 8.6665H7.33341V12.6665C7.33341 12.8433 7.40365 13.0129 7.52868 13.1379C7.6537 13.2629 7.82327 13.3332 8.00008 13.3332C8.17689 13.3332 8.34646 13.2629 8.47149 13.1379C8.59651 13.0129 8.66675 12.8433 8.66675 12.6665V8.6665H12.6667C12.8436 8.6665 13.0131 8.59627 13.1382 8.47124C13.2632 8.34622 13.3334 8.17665 13.3334 7.99984C13.3334 7.82303 13.2632 7.65346 13.1382 7.52843C13.0131 7.40341 12.8436 7.33317 12.6667 7.33317Z" fill="white"/>
</svg>
