<svg width="33" height="33" viewBox="0 0 33 33" fill="none" xmlns="http://www.w3.org/2000/svg">
<path d="M16.5 32.7201C25.4725 32.7201 32.7462 25.4523 32.7462 16.487C32.7462 7.52167 25.4725 0.253846 16.5 0.253846C7.5275 0.253846 0.253846 7.52167 0.253846 16.487C0.253846 25.4523 7.5275 32.7201 16.5 32.7201Z" fill="#F4F4F4" stroke="#275878" stroke-width="0.5"/>
<path d="M17.3226 23.8872H13.208C10.936 23.8872 9.09341 22.0461 9.09341 19.7759V13.1972C9.09341 10.927 10.936 9.08591 13.208 9.08591H19.792C22.064 9.08591 23.9066 10.927 23.9066 13.1972V17.3085" stroke="#275878" stroke-width="1.5" stroke-linecap="round" stroke-linejoin="round"/>
<path d="M18.5951 14.3934C19.7516 15.5498 19.7516 17.4238 18.5951 18.5795C17.4377 19.7351 15.5622 19.7351 14.4048 18.5795C13.2482 17.4238 13.2482 15.5498 14.4048 14.3934C14.9601 13.8378 15.7144 13.5262 16.4999 13.5262C17.2855 13.5262 18.0398 13.8378 18.5951 14.3934Z" stroke="#275878" stroke-width="1.5" stroke-linecap="round" stroke-linejoin="round"/>
<path d="M20.6146 22.6488H24.7292" stroke="#275878" stroke-width="1.5" stroke-linecap="round" stroke-linejoin="round"/>
<path d="M22.6719 24.7046V20.5933" stroke="#275878" stroke-width="1.5" stroke-linecap="round" stroke-linejoin="round"/>
</svg>
