<svg width="16" height="15" viewBox="0 0 16 15" fill="none" xmlns="http://www.w3.org/2000/svg">
<g opacity="0.7">
<path d="M2.26117 10.9388L3.02385 10.1815C2.18875 9.43165 1.5326 8.50393 1.1038 7.46674C2.1865 4.76267 5.17324 2.66661 7.99999 2.66661C8.72741 2.67621 9.44826 2.80597 10.1334 3.05062L10.9601 2.2186C10.0228 1.8225 9.01745 1.61237 7.99999 1.59992C6.26155 1.66529 4.58037 2.23863 3.16423 3.24907C1.74809 4.25952 0.659076 5.66277 0.0317739 7.2854C-0.0105913 7.40258 -0.0105913 7.5309 0.0317739 7.64808C0.505518 8.90519 1.26937 10.0327 2.26117 10.9388Z" fill="#8C8FA5"/>
<path d="M5.86666 7.32298C5.90375 6.81188 6.12357 6.33121 6.48592 5.96886C6.84827 5.60651 7.32894 5.38669 7.84004 5.3496L8.8054 4.37891C8.26446 4.23647 7.69563 4.23832 7.15563 4.38427C6.61563 4.53022 6.12331 4.81517 5.72777 5.21071C5.33223 5.60625 5.04728 6.09857 4.90133 6.63857C4.75538 7.17857 4.75353 7.7474 4.89597 8.28834L5.86666 7.32298Z" fill="#8C8FA5"/>
<path d="M15.9682 7.28553C15.3567 5.69253 14.2925 4.3132 12.9068 3.31742L15.4669 0.75202L14.7149 0L0.533157 14.1817L1.28518 14.9337L4.00525 12.2137C5.21801 12.9251 6.59414 13.311 8.00002 13.3337C9.73846 13.2683 11.4196 12.695 12.8358 11.6845C14.2519 10.6741 15.3409 9.27083 15.9682 7.6482C16.0106 7.53102 16.0106 7.40271 15.9682 7.28553ZM10.1334 7.46687C10.1312 7.84026 10.031 8.20653 9.84279 8.52906C9.65463 8.85159 9.38511 9.11909 9.06117 9.30481C8.73723 9.49054 8.37022 9.58799 7.99682 9.58742C7.62341 9.58685 7.2567 9.48829 6.93333 9.30158L9.83474 6.40017C10.0265 6.72324 10.1295 7.09121 10.1334 7.46687ZM8.00002 12.267C6.88109 12.2474 5.78337 11.9584 4.79994 11.4243L6.15464 10.0696C6.77083 10.4972 7.51763 10.6947 8.26463 10.6277C9.01164 10.5608 9.71139 10.2336 10.2417 9.70323C10.772 9.1729 11.0993 8.47315 11.1662 7.72614C11.2332 6.97914 11.0356 6.23235 10.6081 5.61615L12.1388 4.08544C13.3626 4.92546 14.3196 6.09906 14.8962 7.46687C13.8135 10.1709 10.8268 12.267 8.00002 12.267Z" fill="#8C8FA5"/>
</g>
</svg>
