<svg width="24" height="24" viewBox="0 0 24 24" fill="none" xmlns="http://www.w3.org/2000/svg">
<path d="M11.0001 11H17.0001C17.2653 11 17.5197 10.8946 17.7072 10.7071C17.8948 10.5196 18.0001 10.2652 18.0001 10C18.0001 9.73478 17.8948 9.48043 17.7072 9.29289C17.5197 9.10536 17.2653 9 17.0001 9H11.0001C10.7349 9 10.4805 9.10536 10.293 9.29289C10.1055 9.48043 10.0001 9.73478 10.0001 10C10.0001 10.2652 10.1055 10.5196 10.293 10.7071C10.4805 10.8946 10.7349 11 11.0001 11ZM7.00011 9C6.80233 9 6.60899 9.05865 6.44454 9.16853C6.28009 9.27841 6.15192 9.43459 6.07623 9.61732C6.00054 9.80004 5.98074 10.0011 6.01932 10.1951C6.05791 10.3891 6.15315 10.5673 6.293 10.7071C6.43286 10.847 6.61104 10.9422 6.80502 10.9808C6.999 11.0194 7.20007 10.9996 7.38279 10.9239C7.56552 10.8482 7.7217 10.72 7.83158 10.5556C7.94146 10.3911 8.00011 10.1978 8.00011 10C8.00011 9.73478 7.89475 9.48043 7.70722 9.29289C7.51968 9.10536 7.26533 9 7.00011 9ZM7.00011 13C6.80233 13 6.60899 13.0586 6.44454 13.1685C6.28009 13.2784 6.15192 13.4346 6.07623 13.6173C6.00054 13.8 5.98074 14.0011 6.01932 14.1951C6.05791 14.3891 6.15315 14.5673 6.293 14.7071C6.43286 14.847 6.61104 14.9422 6.80502 14.9808C6.999 15.0194 7.20007 14.9996 7.38279 14.9239C7.56552 14.8482 7.7217 14.72 7.83158 14.5556C7.94146 14.3911 8.00011 14.1978 8.00011 14C8.00011 13.7348 7.89475 13.4804 7.70722 13.2929C7.51968 13.1054 7.26533 13 7.00011 13ZM12.0001 2C10.6869 2 9.38653 2.25866 8.17328 2.7612C6.96002 3.26375 5.85763 4.00035 4.92904 4.92893C3.05368 6.8043 2.00011 9.34784 2.00011 12C1.99137 14.3091 2.7909 16.5485 4.26011 18.33L2.26011 20.33C2.12135 20.4706 2.02736 20.6492 1.98998 20.8432C1.95261 21.0372 1.97353 21.2379 2.05011 21.42C2.13317 21.5999 2.26781 21.7511 2.43696 21.8544C2.6061 21.9577 2.80211 22.0083 3.00011 22H12.0001C14.6523 22 17.1958 20.9464 19.0712 19.0711C20.9465 17.1957 22.0001 14.6522 22.0001 12C22.0001 9.34784 20.9465 6.8043 19.0712 4.92893C17.1958 3.05357 14.6523 2 12.0001 2ZM12.0001 20H5.41011L6.34011 19.07C6.4346 18.9774 6.50977 18.8669 6.56126 18.7451C6.61276 18.6232 6.63956 18.4923 6.64011 18.36C6.63635 18.0962 6.52852 17.8446 6.34011 17.66C5.0307 16.352 4.21528 14.6305 4.0328 12.7888C3.85032 10.947 4.31205 9.09901 5.33934 7.55952C6.36662 6.02004 7.8959 4.88436 9.66663 4.34597C11.4374 3.80759 13.34 3.8998 15.0503 4.60691C16.7607 5.31402 18.173 6.59227 19.0465 8.22389C19.9201 9.85551 20.201 11.7395 19.8412 13.555C19.4815 15.3705 18.5034 17.005 17.0736 18.1802C15.6439 19.3554 13.8509 19.9985 12.0001 20ZM17.0001 13H11.0001C10.7349 13 10.4805 13.1054 10.293 13.2929C10.1055 13.4804 10.0001 13.7348 10.0001 14C10.0001 14.2652 10.1055 14.5196 10.293 14.7071C10.4805 14.8946 10.7349 15 11.0001 15H17.0001C17.2653 15 17.5197 14.8946 17.7072 14.7071C17.8948 14.5196 18.0001 14.2652 18.0001 14C18.0001 13.7348 17.8948 13.4804 17.7072 13.2929C17.5197 13.1054 17.2653 13 17.0001 13Z" fill="white"/>
</svg>
