<svg width="30" height="18" viewBox="0 0 30 18" fill="none" xmlns="http://www.w3.org/2000/svg">
<path fill-rule="evenodd" clip-rule="evenodd" d="M9.63641 0.367202C9.75281 0.483307 9.84516 0.621234 9.90817 0.773084C9.97118 0.924934 10.0036 1.08772 10.0036 1.25213C10.0036 1.41653 9.97118 1.57932 9.90817 1.73117C9.84516 1.88302 9.75281 2.02095 9.63641 2.13705L3.01948 8.75149L9.63641 15.3659C9.75262 15.4821 9.84481 15.6201 9.9077 15.7719C9.97059 15.9238 10.003 16.0865 10.003 16.2509C10.003 16.4152 9.97059 16.5779 9.9077 16.7298C9.84481 16.8816 9.75262 17.0196 9.63641 17.1358C9.5202 17.252 9.38224 17.3442 9.23041 17.4071C9.07857 17.47 8.91583 17.5023 8.75149 17.5023C8.58714 17.5023 8.42441 17.47 8.27257 17.4071C8.12073 17.3442 7.98277 17.252 7.86656 17.1358L0.367203 9.63641C0.250805 9.52031 0.158456 9.38238 0.0954451 9.23053C0.0324344 9.07868 0 8.91589 0 8.75149C0 8.58708 0.0324344 8.42429 0.0954451 8.27245C0.158456 8.12059 0.250805 7.98267 0.367203 7.86656L7.86656 0.367202C7.98267 0.250804 8.1206 0.158455 8.27245 0.0954439C8.4243 0.0324332 8.58708 0 8.75149 0C8.91589 0 9.07868 0.0324332 9.23053 0.0954439C9.38238 0.158455 9.52031 0.250804 9.63641 0.367202Z" fill="white"/>
<path fill-rule="evenodd" clip-rule="evenodd" d="M1.25244 9.24988C1.25244 8.91838 1.38412 8.60047 1.61852 8.36607C1.85292 8.13167 2.17084 7.99998 2.50233 7.99998H28.7501C29.0816 7.99998 29.3995 8.13167 29.6339 8.36607C29.8683 8.60047 30 8.91838 30 9.24988C30 9.58137 29.8683 9.89929 29.6339 10.1337C29.3995 10.3681 29.0816 10.4998 28.7501 10.4998H2.50233C2.17084 10.4998 1.85292 10.3681 1.61852 10.1337C1.38412 9.89929 1.25244 9.58137 1.25244 9.24988Z" fill="white"/>
</svg>
